<?xml version="1.0" encoding="UTF-8"?>
<svg width="528px" height="528px" viewBox="0 0 88 88" version="1.1" xmlns="http://www.w3.org/2000/svg" xmlns:xlink="http://www.w3.org/1999/xlink">
    <path
        d="M31,24 L56.0264018,24 C59.1467174,24 60.2782192,24.3248896 61.41896,24.9349645 C62.5597007,25.5450393 63.4549607,26.4402993 64.0650355,27.58104 C64.6751104,28.7217808 65,29.8532826 65,32.9735982 L65,79.0264018 C65,82.1467174 64.6751104,83.2782192 64.0650355,84.41896 C63.4549607,85.5597007 62.5597007,86.4549607 61.41896,87.0650355 C60.2782192,87.6751104 59.1467174,88 56.0264018,88 L30.9735982,88 C27.8532826,88 26.7217808,87.6751104 25.58104,87.0650355 C24.4402993,86.4549607 23.5450393,85.5597007 22.9349645,84.41896 C22.3248896,83.2782192 22,82.1467174 22,79.0264018 L22,32.9735982 L22,4.5 C22,2.01471863 24.0147186,4.56538782e-16 26.5,0 C28.9852814,-4.56538782e-16 31,2.01471863 31,4.5 L31,24 Z M28,34 L28,49 L59,49 L59,34 L28,34 Z M37.5,75 C36.6715729,75 36,75.6715729 36,76.5 C36,77.3284271 36.6715729,78 37.5,78 L50.5,78 C51.3284271,78 52,77.3284271 52,76.5 C52,75.6715729 51.3284271,75 50.5,75 L37.5,75 Z M35.5,70 C34.6715729,70 34,70.6715729 34,71.5 C34,72.3284271 34.6715729,73 35.5,73 L52.5,73 C53.3284271,73 54,72.3284271 54,71.5 C54,70.6715729 53.3284271,70 52.5,70 L35.5,70 Z M35.5,65 C34.6715729,65 34,65.6715729 34,66.5 C34,67.3284271 34.6715729,68 35.5,68 L52.5,68 C53.3284271,68 54,67.3284271 54,66.5 C54,65.6715729 53.3284271,65 52.5,65 L35.5,65 Z M37.5,60 C36.6715729,60 36,60.6715729 36,61.5 C36,62.3284271 36.6715729,63 37.5,63 L50.5,63 C51.3284271,63 52,62.3284271 52,61.5 C52,60.6715729 51.3284271,60 50.5,60 L37.5,60 Z"
        stroke="#ffffff"
        stroke-width="1"
        fill-rule="evenodd"
        fill="#000000"
    ></path>
</svg>
