<?xml version="1.0" encoding="UTF-8"?>
<svg width="528px" height="528px" viewBox="0 0 88 88" version="1.1" xmlns="http://www.w3.org/2000/svg" xmlns:xlink="http://www.w3.org/1999/xlink">
    <g stroke="none" stroke-width="1" fill="none" fill-rule="evenodd">
        <path d="M3,37.5190527 L3,10.9767442 C3,8.78044902 4.78044902,7 6.97674419,7 C9.17303935,7 10.9534884,8.78044902 10.9534884,10.9767442 L10.9534884,28.5588278 C11.2682621,28.5499337 11.6072205,28.5454545 11.9735982,28.5454545 L32.0264018,28.5454545 C35.1467174,28.5454545 36.2782192,28.8703442 37.41896,29.480419 C38.5597007,30.0904938 39.4549607,30.9857538 40.0650355,32.1264946 C40.6751104,33.2672353 41,34.3987372 41,37.5190527 L41,77.0264018 C41,80.1467174 40.6751104,81.2782192 40.0650355,82.41896 C39.4549607,83.5597007 38.5597007,84.4549607 37.41896,85.0650355 C36.2782192,85.6751104 35.1467174,86 32.0264018,86 L11.9735982,86 C8.85328261,86 7.72178078,85.6751104 6.58104004,85.0650355 C5.4402993,84.4549607 4.54503929,83.5597007 3.93496446,82.41896 C3.32488964,81.2782192 3,80.1467174 3,77.0264018 L3,37.5190527 Z M9,38 L9,51.4952978 L36,51.4952978 L36,38 L9,38 Z M17.3172717,74.8871473 C16.571947,74.8871473 15.9677419,75.4913524 15.9677419,76.2366771 C15.9677419,76.9820018 16.571947,77.5862069 17.3172717,77.5862069 L28.553696,77.5862069 C29.2990207,77.5862069 29.9032258,76.9820018 29.9032258,76.2366771 C29.9032258,75.4913524 29.2990207,74.8871473 28.553696,74.8871473 L17.3172717,74.8871473 Z M15.5753362,70.3887147 C14.8300115,70.3887147 14.2258065,70.9929198 14.2258065,71.7382445 C14.2258065,72.4835692 14.8300115,73.0877743 15.5753362,73.0877743 L30.2956315,73.0877743 C31.0409562,73.0877743 31.6451613,72.4835692 31.6451613,71.7382445 C31.6451613,70.9929198 31.0409562,70.3887147 30.2956315,70.3887147 L15.5753362,70.3887147 Z M15.5753362,65.8902821 C14.8300115,65.8902821 14.2258065,66.4944872 14.2258065,67.2398119 C14.2258065,67.9851366 14.8300115,68.5893417 15.5753362,68.5893417 L30.2956315,68.5893417 C31.0409562,68.5893417 31.6451613,67.9851366 31.6451613,67.2398119 C31.6451613,66.4944872 31.0409562,65.8902821 30.2956315,65.8902821 L15.5753362,65.8902821 Z M17.3172717,61.3918495 C16.571947,61.3918495 15.9677419,61.9960546 15.9677419,62.7413793 C15.9677419,63.486704 16.571947,64.0909091 17.3172717,64.0909091 L28.553696,64.0909091 C29.2990207,64.0909091 29.9032258,63.486704 29.9032258,62.7413793 C29.9032258,61.9960546 29.2990207,61.3918495 28.553696,61.3918495 L17.3172717,61.3918495 Z" stroke="#000000" fill="#ffffff"></path>
        <path d="M67,41 C55.954305,41 47,32.045695 47,21 C47,9.954305 55.954305,1 67,1 C78.045695,1 87,9.954305 87,21 C87,32.045695 78.045695,41 67,41 Z M67,18.1715729 L55.6862915,6.85786438 L52.8578644,9.6862915 L64.1715729,21 L52.8578644,32.3137085 L55.6862915,35.1421356 L67,23.8284271 L78.3137085,35.1421356 L81.1421356,32.3137085 L69.8284271,21 L81.1421356,9.6862915 L78.3137085,6.85786438 L67,18.1715729 Z" stroke="#000000" fill="#ffffff"></path>
    </g>
</svg>