<?xml version="1.0" encoding="UTF-8"?>
<svg width="528px" height="528px" viewBox="0 0 88 88" version="1.1" xmlns="http://www.w3.org/2000/svg" xmlns:xlink="http://www.w3.org/1999/xlink">
    <g stroke="none" stroke-width="1" fill="none" fill-rule="evenodd">
        <path d="M3,37.5190527 L3,10.9767442 C3,8.78044902 4.78044902,7 6.97674419,7 C9.17303935,7 10.9534884,8.78044902 10.9534884,10.9767442 L10.9534884,28.5588278 C11.2682621,28.5499337 11.6072205,28.5454545 11.9735982,28.5454545 L32.0264018,28.5454545 C35.1467174,28.5454545 36.2782192,28.8703442 37.41896,29.480419 C38.5597007,30.0904938 39.4549607,30.9857538 40.0650355,32.1264946 C40.6751104,33.2672353 41,34.3987372 41,37.5190527 L41,77.0264018 C41,80.1467174 40.6751104,81.2782192 40.0650355,82.41896 C39.4549607,83.5597007 38.5597007,84.4549607 37.41896,85.0650355 C36.2782192,85.6751104 35.1467174,86 32.0264018,86 L11.9735982,86 C8.85328261,86 7.72178078,85.6751104 6.58104004,85.0650355 C5.4402993,84.4549607 4.54503929,83.5597007 3.93496446,82.41896 C3.32488964,81.2782192 3,80.1467174 3,77.0264018 L3,37.5190527 Z M9,38 L9,51.4952978 L36,51.4952978 L36,38 L9,38 Z M17.3172717,74.8871473 C16.571947,74.8871473 15.9677419,75.4913524 15.9677419,76.2366771 C15.9677419,76.9820018 16.571947,77.5862069 17.3172717,77.5862069 L28.553696,77.5862069 C29.2990207,77.5862069 29.9032258,76.9820018 29.9032258,76.2366771 C29.9032258,75.4913524 29.2990207,74.8871473 28.553696,74.8871473 L17.3172717,74.8871473 Z M15.5753362,70.3887147 C14.8300115,70.3887147 14.2258065,70.9929198 14.2258065,71.7382445 C14.2258065,72.4835692 14.8300115,73.0877743 15.5753362,73.0877743 L30.2956315,73.0877743 C31.0409562,73.0877743 31.6451613,72.4835692 31.6451613,71.7382445 C31.6451613,70.9929198 31.0409562,70.3887147 30.2956315,70.3887147 L15.5753362,70.3887147 Z M15.5753362,65.8902821 C14.8300115,65.8902821 14.2258065,66.4944872 14.2258065,67.2398119 C14.2258065,67.9851366 14.8300115,68.5893417 15.5753362,68.5893417 L30.2956315,68.5893417 C31.0409562,68.5893417 31.6451613,67.9851366 31.6451613,67.2398119 C31.6451613,66.4944872 31.0409562,65.8902821 30.2956315,65.8902821 L15.5753362,65.8902821 Z M17.3172717,61.3918495 C16.571947,61.3918495 15.9677419,61.9960546 15.9677419,62.7413793 C15.9677419,63.486704 16.571947,64.0909091 17.3172717,64.0909091 L28.553696,64.0909091 C29.2990207,64.0909091 29.9032258,63.486704 29.9032258,62.7413793 C29.9032258,61.9960546 29.2990207,61.3918495 28.553696,61.3918495 L17.3172717,61.3918495 Z" stroke="#000000" fill="#ffffff"></path>
        <g transform="translate(46.000000, 1.000000)" fill="#ffffff" stroke="#000000">
            <path d="M1.171875,23.4375 L3.515625,23.4375 C10.6347656,23.4375 16.5625,29.3649292 16.5625,36.484375 L16.5625,38.828125 C16.5625,39.4754028 17.0870972,40 17.734375,40 L20.078125,40 C20.7254028,40 21.25,39.4754028 21.25,38.828125 L21.25,36.484375 C21.25,26.776123 13.223877,18.75 3.515625,18.75 L1.171875,18.75 C0.524597187,18.75 0,19.2745972 0,19.921875 L0,22.265625 C0,22.9129028 0.524597188,23.4375 1.171875,23.4375 Z"></path>
            <path d="M1.171875,14.0625 L3.515625,14.0625 C15.8126831,14.0625 25.9375,24.1873169 25.9375,36.484375 L25.9375,38.828125 C25.9375,39.4754028 26.4620972,40 27.109375,40 L29.453125,40 C30.1004028,40 30.625,39.4754028 30.625,38.828125 L30.625,36.484375 C30.625,21.5985108 18.4014892,9.375 3.515625,9.375 L1.171875,9.375 C0.524597187,9.375 0,9.89959719 0,10.546875 L0,12.890625 C0,13.5379028 0.524597188,14.0625 1.171875,14.0625 Z"></path>
            <path d="M3.515625,0 L1.171875,0 C0.524597187,0 0,0.524597188 0,1.171875 L0,3.515625 C0,4.16290281 0.524597188,4.6875 1.171875,4.6875 L3.515625,4.6875 C20.9902954,4.6875 35.3125,19.0097046 35.3125,36.484375 L35.3125,38.828125 C35.3125,39.4754028 35.8370972,40 36.484375,40 L38.828125,40 C39.4754028,40 40,39.4754028 40,38.828125 L40,36.484375 C40,16.4208984 23.5791016,0 3.515625,0 Z"></path>
        </g>
    </g>
</svg>